<svg width="235" height="60" viewBox="0 0 235 60" fill="none" xmlns="http://www.w3.org/2000/svg">
<rect width="235" height="60" rx="10" fill="#5528FF"/>
<path d="M68.752 32.896C68.288 34.192 67.392 35.24 66.064 36.04C64.736 36.84 63.24 37.24 61.576 37.24C59.16 37.24 57.152 36.416 55.552 34.768C53.968 33.104 53.176 31.032 53.176 28.552C53.176 26.104 53.968 24.064 55.552 22.432C57.152 20.784 59.16 19.96 61.576 19.96C63.16 19.96 64.592 20.32 65.872 21.04C67.152 21.76 68.048 22.712 68.56 23.896L66.952 24.688C66.504 23.776 65.792 23.056 64.816 22.528C63.856 21.984 62.776 21.712 61.576 21.712C59.672 21.712 58.104 22.36 56.872 23.656C55.656 24.952 55.048 26.584 55.048 28.552C55.048 30.552 55.656 32.208 56.872 33.52C58.104 34.832 59.672 35.488 61.576 35.488C62.856 35.488 64 35.192 65.008 34.6C66.016 33.992 66.72 33.176 67.12 32.152L68.752 32.896ZM72.2667 26.848C73.4347 25.68 74.8667 25.096 76.5627 25.096C78.2587 25.096 79.6907 25.68 80.8587 26.848C82.0267 28.016 82.6107 29.456 82.6107 31.168C82.6107 32.88 82.0267 34.32 80.8587 35.488C79.6907 36.656 78.2587 37.24 76.5627 37.24C74.8667 37.24 73.4347 36.656 72.2667 35.488C71.1147 34.32 70.5387 32.88 70.5387 31.168C70.5387 29.456 71.1147 28.016 72.2667 26.848ZM79.6347 28.024C78.8027 27.176 77.7787 26.752 76.5627 26.752C75.3467 26.752 74.3227 27.176 73.4907 28.024C72.6747 28.872 72.2667 29.92 72.2667 31.168C72.2667 32.4 72.6747 33.448 73.4907 34.312C74.3227 35.16 75.3467 35.584 76.5627 35.584C77.7787 35.584 78.8027 35.16 79.6347 34.312C80.4667 33.448 80.8827 32.4 80.8827 31.168C80.8827 29.92 80.4667 28.872 79.6347 28.024ZM91.1057 25.096C92.5457 25.096 93.7057 25.568 94.5858 26.512C95.4658 27.456 95.9058 28.712 95.9058 30.28V37H94.1537V30.52C94.1537 29.4 93.8417 28.504 93.2177 27.832C92.5937 27.144 91.7697 26.8 90.7458 26.8C89.9778 26.8 89.2498 26.984 88.5618 27.352C87.8898 27.72 87.3778 28.224 87.0258 28.864V37H85.2738V25.336H87.0258V27.16C87.4097 26.52 87.9697 26.016 88.7057 25.648C89.4418 25.28 90.2418 25.096 91.1057 25.096ZM104.61 35.392L104.73 36.928C104.394 37.056 104.026 37.12 103.626 37.12C102.426 37.12 101.45 36.752 100.698 36.016C99.9617 35.264 99.5937 34.232 99.5937 32.92V26.968H97.2657V25.336H99.5937V22.12H101.322V25.336H104.61V26.968H101.322V32.848C101.322 33.68 101.554 34.336 102.018 34.816C102.498 35.28 103.106 35.512 103.842 35.512C104.114 35.512 104.37 35.472 104.61 35.392ZM115.607 25.336H117.359V37H115.607V35.176C115.271 35.768 114.711 36.264 113.927 36.664C113.159 37.048 112.359 37.24 111.527 37.24C109.879 37.24 108.495 36.656 107.375 35.488C106.255 34.32 105.695 32.872 105.695 31.144C105.695 29.432 106.255 28 107.375 26.848C108.495 25.68 109.879 25.096 111.527 25.096C112.375 25.096 113.183 25.296 113.951 25.696C114.735 26.08 115.287 26.568 115.607 27.16V25.336ZM111.815 35.584C112.583 35.584 113.319 35.384 114.023 34.984C114.727 34.584 115.255 34.08 115.607 33.472V28.888C115.271 28.248 114.751 27.728 114.047 27.328C113.343 26.928 112.599 26.728 111.815 26.728C110.567 26.728 109.519 27.152 108.671 28C107.839 28.832 107.423 29.88 107.423 31.144C107.423 32.408 107.839 33.464 108.671 34.312C109.519 35.16 110.567 35.584 111.815 35.584ZM131.295 34.24C130.831 35.168 130.135 35.904 129.207 36.448C128.279 36.976 127.231 37.24 126.063 37.24C124.367 37.24 122.935 36.656 121.767 35.488C120.599 34.32 120.015 32.88 120.015 31.168C120.015 29.456 120.591 28.016 121.743 26.848C122.911 25.68 124.351 25.096 126.063 25.096C127.183 25.096 128.183 25.352 129.063 25.864C129.943 26.376 130.575 27.056 130.959 27.904L129.471 28.696C129.215 28.104 128.775 27.632 128.151 27.28C127.543 26.928 126.847 26.752 126.063 26.752C124.831 26.752 123.799 27.176 122.967 28.024C122.151 28.872 121.743 29.92 121.743 31.168C121.743 32.4 122.159 33.448 122.991 34.312C123.823 35.16 124.847 35.584 126.063 35.584C126.895 35.584 127.639 35.4 128.295 35.032C128.951 34.664 129.447 34.16 129.783 33.52L131.295 34.24ZM139.649 35.392L139.769 36.928C139.433 37.056 139.065 37.12 138.665 37.12C137.465 37.12 136.489 36.752 135.737 36.016C135.001 35.264 134.633 34.232 134.633 32.92V26.968H132.305V25.336H134.633V22.12H136.361V25.336H139.649V26.968H136.361V32.848C136.361 33.68 136.593 34.336 137.057 34.816C137.537 35.28 138.145 35.512 138.881 35.512C139.153 35.512 139.409 35.472 139.649 35.392ZM159.177 35.392C157.961 36.624 156.433 37.24 154.592 37.24C152.753 37.24 151.225 36.624 150.008 35.392C148.809 34.144 148.209 32.584 148.209 30.712V20.2H150.008V30.712C150.008 32.088 150.441 33.232 151.305 34.144C152.185 35.04 153.281 35.488 154.592 35.488C155.904 35.488 156.992 35.04 157.857 34.144C158.737 33.232 159.177 32.088 159.177 30.712V20.2H161V30.712C161 32.584 160.392 34.144 159.177 35.392ZM168.355 37.24C167.475 37.24 166.611 37.088 165.763 36.784C164.915 36.48 164.211 36.072 163.651 35.56L164.443 34.24C164.891 34.688 165.475 35.056 166.195 35.344C166.931 35.632 167.643 35.776 168.331 35.776C169.131 35.776 169.771 35.592 170.251 35.224C170.731 34.84 170.971 34.336 170.971 33.712C170.971 33.2 170.731 32.8 170.251 32.512C169.771 32.224 169.187 32.016 168.499 31.888C167.827 31.744 167.147 31.584 166.459 31.408C165.771 31.232 165.187 30.904 164.707 30.424C164.227 29.944 163.987 29.304 163.987 28.504C163.987 27.48 164.379 26.656 165.163 26.032C165.947 25.408 166.979 25.096 168.259 25.096C169.075 25.096 169.851 25.232 170.587 25.504C171.323 25.76 171.915 26.128 172.363 26.608L171.547 27.928C171.163 27.512 170.643 27.184 169.987 26.944C169.331 26.688 168.707 26.56 168.115 26.56C167.395 26.56 166.819 26.728 166.387 27.064C165.955 27.384 165.739 27.824 165.739 28.384C165.739 28.88 165.979 29.272 166.459 29.56C166.939 29.848 167.523 30.064 168.211 30.208C168.899 30.352 169.587 30.52 170.275 30.712C170.963 30.904 171.547 31.248 172.027 31.744C172.507 32.224 172.747 32.864 172.747 33.664C172.747 34.736 172.339 35.6 171.523 36.256C170.723 36.912 169.667 37.24 168.355 37.24Z" fill="white"/>
</svg>

